<svg id="Layer_1" data-name="Layer 1" xmlns="http://www.w3.org/2000/svg" viewBox="0 0 407.35 157.81"><defs><style>.cls-1{fill:#a6a5a5;}.cls-1,.cls-2,.cls-3{fill-rule:evenodd;}.cls-2{fill:#4d4d4e;}.cls-3{fill:#f26b21;}</style></defs><path class="cls-1" d="M384,129.78v.69a13.79,13.79,0,0,0,3.19,9.29,10.15,10.15,0,0,0,8,3.71,11.83,11.83,0,0,0,5.12-1.06,11.32,11.32,0,0,0,4-3.4l2.26,1.73q-4,5.79-11.57,5.79a14,14,0,0,1-12.78-7.8,18,18,0,0,1-1.87-8.26v-1.3a19.29,19.29,0,0,1,1.83-8.51,14.5,14.5,0,0,1,5.09-6,12.54,12.54,0,0,1,7.07-2.16,11.8,11.8,0,0,1,9.44,4.07q3.5,4.08,3.49,11.14v2Zm19.73-3.49a12,12,0,0,0-2.69-7.69,8.3,8.3,0,0,0-6.64-3,9,9,0,0,0-6.88,3,13.93,13.93,0,0,0-3.4,8.06h19.61ZM356.24,140a9.06,9.06,0,0,0,7.63,3.52,9.49,9.49,0,0,0,6.33-2.14A7.5,7.5,0,0,0,373,135.8h3.48a10.33,10.33,0,0,1-1.87,5.47,11.76,11.76,0,0,1-4.58,3.86,13.8,13.8,0,0,1-6.12,1.4,12.63,12.63,0,0,1-10.2-4.49q-3.76-4.47-3.76-12V128.9a20.56,20.56,0,0,1,1.69-8.58,13.1,13.1,0,0,1,4.85-5.75,13.41,13.41,0,0,1,7.39-2,12.61,12.61,0,0,1,8.87,3.21,11.74,11.74,0,0,1,3.73,8.45H373a9.4,9.4,0,0,0-16.72-5q-2.7,3.56-2.7,9.94v1.06Q353.54,136.44,356.24,140ZM345.44,116a8.78,8.78,0,0,0-5.73,1.9,10.39,10.39,0,0,0-3.34,5.49v22.51h-3.59V113.14h3.53l.06,5.22a9.62,9.62,0,0,1,9.22-5.82,6,6,0,0,1,2.39.39l-.1,3.3A13.52,13.52,0,0,0,345.44,116Zm-41.79,14.45a13.74,13.74,0,0,0,3.19,9.29,10.13,10.13,0,0,0,8,3.71,11.86,11.86,0,0,0,5.12-1.06,11.29,11.29,0,0,0,4-3.4l2.27,1.73q-4,5.79-11.57,5.79a14,14,0,0,1-12.78-7.8,18,18,0,0,1-1.88-8.26v-1.3a19.29,19.29,0,0,1,1.83-8.51,14.64,14.64,0,0,1,5.09-6,12.59,12.59,0,0,1,7.07-2.16,11.79,11.79,0,0,1,9.44,4.07q3.5,4.08,3.49,11.14v2H303.65Zm19.73-3.78v-.4a12,12,0,0,0-2.69-7.69,8.32,8.32,0,0,0-6.65-3,9,9,0,0,0-6.87,3,13.86,13.86,0,0,0-3.4,8.06Zm-32.88-2.37q0-4.39-1.88-6.51t-6.06-2.12a9.59,9.59,0,0,0-6.59,2.53,9,9,0,0,0-3,6v21.69h-3.63V124.05c0-2.81-.68-4.9-2-6.29s-3.3-2.07-6-2.07a9.1,9.1,0,0,0-5.86,2,11.49,11.49,0,0,0-3.63,5.8v22.48h-3.63V113.14h3.48l.12,5.34a12.16,12.16,0,0,1,4.53-4.46,12.43,12.43,0,0,1,6.05-1.48c5.15,0,8.43,2.12,9.81,6.36a12.27,12.27,0,0,1,4.69-4.71,12.94,12.94,0,0,1,6.46-1.65q10.52,0,10.73,11.51v21.87H290.5Zm-53.6,0q0-4.39-1.89-6.51t-6-2.12a9.59,9.59,0,0,0-6.59,2.53,9,9,0,0,0-3,6v21.69h-3.63V124.05c0-2.81-.68-4.9-2-6.29s-3.3-2.07-6-2.07a9.15,9.15,0,0,0-5.87,2,11.48,11.48,0,0,0-3.62,5.8v22.48h-3.63V113.14h3.48l.12,5.34a12.16,12.16,0,0,1,4.53-4.46,12.39,12.39,0,0,1,6-1.48q7.74,0,9.82,6.36a12.27,12.27,0,0,1,4.69-4.71,12.94,12.94,0,0,1,6.46-1.65q10.51,0,10.73,11.51v21.87H236.9Zm-55.26,20.15a14.13,14.13,0,0,1-7.59,2.06,13.45,13.45,0,0,1-10.56-4.59q-4.05-4.59-4.06-12.16v-.73a19.29,19.29,0,0,1,1.83-8.51,13.71,13.71,0,0,1,12.73-8,13.43,13.43,0,0,1,10.58,4.59q4.05,4.59,4.05,12.16v.76a19.51,19.51,0,0,1-1.83,8.56A13.78,13.78,0,0,1,181.64,144.47ZM185,129.05a16.65,16.65,0,0,0-1.39-6.88,11.13,11.13,0,0,0-3.89-4.83,10,10,0,0,0-5.75-1.71,9.65,9.65,0,0,0-7.88,3.8q-3.06,3.81-3.05,9.95v.67a14.93,14.93,0,0,0,3,9.65,10.27,10.27,0,0,0,15.9,0q3-3.78,3-9.95ZM135.24,140a9.07,9.07,0,0,0,7.63,3.52,9.49,9.49,0,0,0,6.33-2.14A7.51,7.51,0,0,0,152,135.8h3.47a10.24,10.24,0,0,1-1.87,5.47,11.76,11.76,0,0,1-4.58,3.86,13.74,13.74,0,0,1-6.12,1.4,12.63,12.63,0,0,1-10.2-4.49q-3.75-4.47-3.76-12V128.9a20.56,20.56,0,0,1,1.7-8.58,13,13,0,0,1,4.84-5.75,13.41,13.41,0,0,1,7.39-2,12.59,12.59,0,0,1,8.87,3.21,11.7,11.7,0,0,1,3.73,8.45H152a9.41,9.41,0,0,0-16.73-5q-2.7,3.56-2.7,9.94v1.06Q132.54,136.44,135.24,140Z"/><path class="cls-2" d="M407.13,96.58v7.28q-24,0-24-20.47v-70h8.77v23h15.22v8.21H391.91V81.89Q391.91,96.58,407.13,96.58ZM368.72,47.42a23,23,0,0,0-5.19,5.44q-2.19,3.81-2.19,10.17v39.45h-9.23V36.55h8.19v9.37a20.18,20.18,0,0,1,18.34-10.64v8.79A16.12,16.12,0,0,0,368.72,47.42ZM337.11,92.18q-10.69,12.27-26.2,11.8a32.28,32.28,0,0,1-23.1-10.53,33.59,33.59,0,0,1-9.54-23.94A34,34,0,0,1,288.54,44.7a31.46,31.46,0,0,1,24.57-9.77,33,33,0,0,1,23.54,10.58,31.79,31.79,0,0,1,9.23,23.89v33.08h-8.77Zm-7.4-41.27a23.09,23.09,0,0,0-17.23-7.42,24.38,24.38,0,0,0-17.93,7.42,24.91,24.91,0,0,0-7.51,18,25.37,25.37,0,0,0,6.88,18.26,23.94,23.94,0,0,0,17.17,8.29,23.25,23.25,0,0,0,18.56-7.59,25.86,25.86,0,0,0,7.46-19.07A25.63,25.63,0,0,0,329.71,50.91ZM262.12,62a20.19,20.19,0,0,0-4.38-13.07,14.12,14.12,0,0,0-11.54-5.43,18.06,18.06,0,0,0-12.52,4.74A15.24,15.24,0,0,0,228.43,60v42.45H219.2V60A15.27,15.27,0,0,0,214,48.23a18.08,18.08,0,0,0-12.52-4.74A13.81,13.81,0,0,0,190,48.87,20.41,20.41,0,0,0,185.75,62v40.49h-9.12V63q0-12.37,7-19.89,6.59-7.05,17.31-8Q215.27,34,223.82,47.42,232.36,34,246.66,35.16q10.72.93,17.42,8,7.16,7.52,7.16,19.89v39.45h-9.12ZM148.25,104.21a20,20,0,0,1-13.9-6.71,20.86,20.86,0,0,1-5.59-14.57h9.11v2.22c0,2.25,1.23,4.59,3.69,7s5.08,3.58,7.85,3.5a12.2,12.2,0,0,0,8.77-3.36,11.38,11.38,0,0,0,3-7.89q.1-8.48-9.59-11.61l-7.72-2.46q-12.12-3.81-12.69-16.54a16.63,16.63,0,0,1,5.15-13.08,19.47,19.47,0,0,1,13.25-5.78,18.11,18.11,0,0,1,12.56,4.34,15.78,15.78,0,0,1,6.3,11.62v2h-9.23V51.33a6.74,6.74,0,0,0-2.94-5.68,11.1,11.1,0,0,0-6.75-2.16,9.46,9.46,0,0,0-6.4,2.67,8.84,8.84,0,0,0-2.83,6.4q-.45,7.09,8.43,10.11l7.61,2.56q13.15,4.51,14.07,17.58.71,8.91-6.22,15.44A20.47,20.47,0,0,1,148.25,104.21Z"/><path class="cls-3" d="M104.87,68.94,60.42,24.39,29.24,55.65,73.68,100.2,58.09,115.83,9.75,67.38a16.61,16.61,0,0,1,0-23.45l39-39.07a16.5,16.5,0,0,1,23.39,0l48.34,48.45ZM60,133.41l31.19-31.26L46.78,57.61,62.37,42l48.34,48.45a16.61,16.61,0,0,1,0,23.45L71.73,153a16.5,16.5,0,0,1-23.39,0L0,104.5,15.59,88.87Z"/></svg>