<svg id="Layer_1" data-name="Layer 1" xmlns="http://www.w3.org/2000/svg" viewBox="0 0 233.23 195.67"><defs><style>.cls-1{fill:#f26b24;}.cls-2{fill:#e2e2e5;}.cls-3{fill:#1e243a;}</style></defs><rect class="cls-1" x="7.63" y="85.9" width="42.2" height="37.21"/><path class="cls-1" d="M119,80.57c1-2.19,1-3.87,1-6.44A17.11,17.11,0,0,0,97.54,57.88l-6.79-6.7,3.18-6.8,2.16-12h13.58V45.06a29.66,29.66,0,0,1,8.8,3.62l8.91-8.92L137,49.37l-8.86,8.86a29.59,29.59,0,0,1,3.75,8.85h12.45V80.67H132a29.91,29.91,0,0,1-3.67,9"/><path class="cls-1" d="M109.53,89.88a17.1,17.1,0,0,1-22.4-22.41l-5.46-7.66-7.86,3.47c-.19.61.22,3.18.07,3.8H61.43V80.67H73.76a29.91,29.91,0,0,0,3.67,9l-8.66,8.66,9.6,9.61L87,99.38a29.63,29.63,0,0,0,9.11,3.81v12.13h13.58V103.19a29.63,29.63,0,0,0,9.11-3.81"/><path class="cls-1" d="M181,55.72a6.37,6.37,0,0,1-.34-1.29,7.24,7.24,0,0,1-.13-1.35,8.13,8.13,0,0,1,.2-1.85,6.69,6.69,0,0,1,.6-1.58,7.22,7.22,0,0,1,1-1.41,12.74,12.74,0,0,1,1.39-1.33c.55-.47,1-.9,1.46-1.31a9.68,9.68,0,0,0,1.07-1.21,4.86,4.86,0,0,0,.66-1.25,4.46,4.46,0,0,0,.22-1.45,3.29,3.29,0,0,0-.24-1.26,2.87,2.87,0,0,0-.7-1,3.5,3.5,0,0,0-1.1-.66,4.1,4.1,0,0,0-1.44-.24,9.84,9.84,0,0,0-3.57.72,11.54,11.54,0,0,0-3.5,2.17V34.78a13.6,13.6,0,0,1,3.7-1.52,16.77,16.77,0,0,1,4.14-.51,15.31,15.31,0,0,1,3.81.45,8.77,8.77,0,0,1,3.07,1.42,6.69,6.69,0,0,1,2,2.48,8.2,8.2,0,0,1,.74,3.62,8.27,8.27,0,0,1-1.21,4.5,10.87,10.87,0,0,1-1.48,1.86c-.59.59-1.26,1.21-2,1.84-.52.42-1,.82-1.36,1.19a7.31,7.31,0,0,0-1,1.09,4.38,4.38,0,0,0-.58,1.14,4.46,4.46,0,0,0-.2,1.38,4.57,4.57,0,0,0,.14,1.08,3.4,3.4,0,0,0,.39.92Zm3.21,9.65a4.24,4.24,0,0,1-2.93-1.06,3.47,3.47,0,0,1-1.16-2.6,3.34,3.34,0,0,1,1.16-2.58,4.26,4.26,0,0,1,2.93-1,4.16,4.16,0,0,1,2.89,1,3.31,3.31,0,0,1,1.14,2.58,3.4,3.4,0,0,1-1.12,2.62A4.17,4.17,0,0,1,184.16,65.37Z"/><path class="cls-2" d="M28.43,133.17H194.07a0,0,0,0,1,0,0v14.22a0,0,0,0,1,0,0H42.65a14.22,14.22,0,0,1-14.22-14.22v0a0,0,0,0,1,0,0Z"/><path class="cls-2" d="M87.23,15.33c-9.37-9.62-26.88-14.42-38-8L73.91,32.68a4.85,4.85,0,0,1-.1,6.86l-7.2,7a4.85,4.85,0,0,1-6.86-.09L39.53,25.69A28.77,28.77,0,0,0,81.66,59.92l65.19,67a16.27,16.27,0,1,0,9-8.72l-65.16-67A28.8,28.8,0,0,0,87.23,15.33Zm80.09,112.61a7.7,7.7,0,1,1-10.88-.15A7.7,7.7,0,0,1,167.32,127.94Z"/><path class="cls-2" d="M195.12,138.63l23.21-45.9,3.3,1.66c1.6.81,3.36.39,3.74-.89l6.33-21.15L222,67.45l-12.4,18.17c-.74,1.08,0,2.69,1.54,3.48l3.35,1.69L191.3,136.7"/><rect class="cls-1" x="150.8" y="22.29" width="62.02" height="6.96"/><path class="cls-1" d="M201.72,145.69c.85-1.69-2.94-5.32-8.46-8.12s-10.7-3.69-11.56-2c-.43.86.34,2.23,1.93,3.73v0l-22.91,45.32c-1.45,2.85.51,6.74,4.36,8.69h0c3.85,1.95,8.14,1.21,9.58-1.64l22.92-45.32v0C199.72,146.74,201.28,146.55,201.72,145.69Z"/><path class="cls-2" d="M183.44,173.65c-6.15,1.33-10-1.47-13.45-6.84l3.79-8c3.42,5.37,7.9,8.17,14,6.84"/><rect class="cls-2" x="91.66" y="148.15" width="39.18" height="35.09"/><path class="cls-2" d="M88.33,183.24H134a11.19,11.19,0,0,1,11.19,11.19v0a0,0,0,0,1,0,0H77.14a0,0,0,0,1,0,0v0A11.19,11.19,0,0,1,88.33,183.24Z"/><path class="cls-3" d="M13.36,186.55a1.51,1.51,0,0,1-.94-1.92h0a1.51,1.51,0,0,1,1.93-.93h0a1.51,1.51,0,0,1,.93,1.92h0a1.51,1.51,0,0,1-1.43,1h0A1.41,1.41,0,0,1,13.36,186.55Zm4.85-1.26a1.52,1.52,0,0,1,.47-2.09h0a1.52,1.52,0,0,1,2.09.48h0a1.51,1.51,0,0,1-.47,2.08h0a1.5,1.5,0,0,1-.81.24h0A1.51,1.51,0,0,1,18.21,185.29Zm-9.8-3.67h0a1.51,1.51,0,0,1,.92-1.93h0a1.51,1.51,0,0,1,1.93.93h0a1.52,1.52,0,0,1-.93,1.93h0a1.69,1.69,0,0,1-.5.08h0A1.5,1.5,0,0,1,8.41,181.62Zm13.93-.44A1.52,1.52,0,0,1,21,179.51h0a1.52,1.52,0,0,1,1.67-1.34h0A1.52,1.52,0,0,1,24,179.84h0a1.51,1.51,0,0,1-1.5,1.35h-.17ZM9.66,176.76a1.51,1.51,0,0,1-.48-2.09h0a1.5,1.5,0,0,1,2.08-.47h0a1.51,1.51,0,0,1,.48,2.08h0a1.51,1.51,0,0,1-1.28.71h0A1.52,1.52,0,0,1,9.66,176.76Zm9.9-1.37h0a1.52,1.52,0,0,1,0-2.14h0a1.52,1.52,0,0,1,2.14,0h0l0,0h0a1.51,1.51,0,0,1,0,2.14h0a1.49,1.49,0,0,1-1.07.44h0A1.49,1.49,0,0,1,19.56,175.39Zm-5.81-2.77A1.51,1.51,0,0,1,15.08,171h0a1.52,1.52,0,0,1,1.68,1.33h0A1.51,1.51,0,0,1,15.43,174h-.17A1.52,1.52,0,0,1,13.75,172.62Z"/><path class="cls-3" d="M67.66,172.18a1.5,1.5,0,0,1-.93-1.92h0a1.51,1.51,0,0,1,1.93-.93h0a1.51,1.51,0,0,1,.93,1.92h0a1.52,1.52,0,0,1-1.43,1h0A1.43,1.43,0,0,1,67.66,172.18Zm4.86-1.26a1.51,1.51,0,0,1,.47-2.09h0a1.52,1.52,0,0,1,2.09.48h0a1.51,1.51,0,0,1-.48,2.08h0a1.48,1.48,0,0,1-.8.23h0A1.49,1.49,0,0,1,72.52,170.92Zm-9.81-3.67a1.51,1.51,0,0,1,.93-1.93h0a1.51,1.51,0,0,1,1.93.93h0a1.51,1.51,0,0,1-.93,1.92h0a1.47,1.47,0,0,1-.5.09h0A1.51,1.51,0,0,1,62.71,167.25Zm13.93-.44a1.51,1.51,0,0,1-1.33-1.67h0A1.52,1.52,0,0,1,77,163.8h0a1.52,1.52,0,0,1,1.34,1.67h0a1.52,1.52,0,0,1-1.51,1.35h-.17ZM64,162.39a1.52,1.52,0,0,1-.48-2.09h0a1.53,1.53,0,0,1,2.09-.48h0a1.52,1.52,0,0,1,.48,2.09h0a1.51,1.51,0,0,1-1.29.71h0A1.57,1.57,0,0,1,64,162.39ZM73.87,161l0,0h0a1.5,1.5,0,0,1,0-2.13h0a1.51,1.51,0,0,1,2.14,0h0A1.51,1.51,0,0,1,76,161h0a1.51,1.51,0,0,1-1.07.44h0A1.47,1.47,0,0,1,73.87,161Zm-5.81-2.77a1.51,1.51,0,0,1,1.33-1.67h0a1.5,1.5,0,0,1,1.67,1.32h0a1.5,1.5,0,0,1-1.32,1.68h-.18A1.51,1.51,0,0,1,68.06,158.25Z"/><path class="cls-3" d="M205.77,15.62a1.51,1.51,0,0,1-.93-1.93h0a1.52,1.52,0,0,1,1.93-.93h0a1.53,1.53,0,0,1,.93,1.93h0a1.52,1.52,0,0,1-1.43,1h0A1.45,1.45,0,0,1,205.77,15.62Zm4.86-1.27a1.5,1.5,0,0,1,.47-2.08h0a1.51,1.51,0,0,1,2.09.47h0a1.52,1.52,0,0,1-.48,2.09h0a1.48,1.48,0,0,1-.8.23h0A1.5,1.5,0,0,1,210.63,14.35Zm-9.81-3.67h0a1.51,1.51,0,0,1,.93-1.93h0a1.52,1.52,0,0,1,1.93.93h0a1.52,1.52,0,0,1-.93,1.93h0a1.47,1.47,0,0,1-.5.09h0A1.52,1.52,0,0,1,200.82,10.68Zm13.93-.44a1.51,1.51,0,0,1-1.33-1.67h0a1.5,1.5,0,0,1,1.67-1.33h0a1.52,1.52,0,0,1,1.34,1.67h0a1.52,1.52,0,0,1-1.51,1.34h-.17ZM202.07,5.82a1.51,1.51,0,0,1-.48-2.08h0a1.52,1.52,0,0,1,2.09-.48h0a1.52,1.52,0,0,1,.48,2.09h0a1.53,1.53,0,0,1-1.29.7h0A1.48,1.48,0,0,1,202.07,5.82ZM212,4.46h0a1.52,1.52,0,0,1,0-2.15h0a1.51,1.51,0,0,1,2.14,0h0a1.51,1.51,0,0,1,0,2.14h0a1.55,1.55,0,0,1-1.07.44h0A1.51,1.51,0,0,1,212,4.46Zm-5.81-2.78A1.5,1.5,0,0,1,207.5,0h0a1.5,1.5,0,0,1,1.67,1.33h0A1.52,1.52,0,0,1,207.85,3h-.18A1.5,1.5,0,0,1,206.17,1.68Z"/><path class="cls-3" d="M5,18.49a1.52,1.52,0,0,1-.94-1.92h0A1.53,1.53,0,0,1,6,15.63H6A1.52,1.52,0,0,1,7,17.56H7a1.51,1.51,0,0,1-1.43,1h0A1.41,1.41,0,0,1,5,18.49Zm4.85-1.26a1.52,1.52,0,0,1,.47-2.09h0a1.52,1.52,0,0,1,2.09.48h0A1.51,1.51,0,0,1,12,17.7h0a1.5,1.5,0,0,1-.81.24h0A1.56,1.56,0,0,1,9.89,17.23ZM.09,13.56A1.51,1.51,0,0,1,1,11.63H1a1.52,1.52,0,0,1,1.93.92h0A1.51,1.51,0,0,1,2,14.48H2a1.43,1.43,0,0,1-.5.09h0A1.51,1.51,0,0,1,.09,13.56ZM14,13.12a1.52,1.52,0,0,1-1.34-1.67h0a1.52,1.52,0,0,1,1.67-1.34h0a1.52,1.52,0,0,1,1.34,1.67h0a1.51,1.51,0,0,1-1.5,1.35H14ZM1.34,8.7A1.51,1.51,0,0,1,.86,6.61h0a1.51,1.51,0,0,1,2.08-.48h0a1.52,1.52,0,0,1,.48,2.09h0a1.51,1.51,0,0,1-1.28.71h0A1.52,1.52,0,0,1,1.34,8.7Zm9.9-1.37h0a1.52,1.52,0,0,1,0-2.14h0a1.51,1.51,0,0,1,2.14,0h0l0,0h0a1.51,1.51,0,0,1,0,2.14h0a1.53,1.53,0,0,1-1.07.44h0A1.53,1.53,0,0,1,11.24,7.33ZM5.43,4.56A1.52,1.52,0,0,1,6.76,2.88h0A1.52,1.52,0,0,1,8.44,4.21h0A1.52,1.52,0,0,1,7.11,5.89H6.94A1.52,1.52,0,0,1,5.43,4.56Z"/><path class="cls-3" d="M119.85,23.64h0a1.51,1.51,0,0,1-.93-1.93h0a1.5,1.5,0,0,1,1.92-.93h0a1.51,1.51,0,0,1,.94,1.92h0a1.52,1.52,0,0,1-1.43,1h0A1.69,1.69,0,0,1,119.85,23.64Zm4.86-1.27a1.51,1.51,0,0,1,.47-2.09h0a1.5,1.5,0,0,1,2.08.47h0a1.5,1.5,0,0,1-.47,2.08h0a1.49,1.49,0,0,1-.8.24h0A1.49,1.49,0,0,1,124.71,22.37ZM114.9,18.7h0a1.51,1.51,0,0,1,.93-1.93h0a1.51,1.51,0,0,1,1.92.93h0a1.51,1.51,0,0,1-.92,1.93h0a1.8,1.8,0,0,1-.5.08h0A1.51,1.51,0,0,1,114.9,18.7Zm13.93-.44a1.5,1.5,0,0,1-1.33-1.67h0a1.5,1.5,0,0,1,1.67-1.33h0a1.5,1.5,0,0,1,1.33,1.67h0a1.51,1.51,0,0,1-1.5,1.34h-.17Zm-12.68-4.42a1.51,1.51,0,0,1-.48-2.08h0a1.51,1.51,0,0,1,2.09-.48h0a1.5,1.5,0,0,1,.47,2.08h0a1.49,1.49,0,0,1-1.28.71h0A1.48,1.48,0,0,1,116.15,13.84Zm9.9-1.37h0a1.51,1.51,0,0,1,0-2.14h0a1.51,1.51,0,0,1,2.14,0h0a1.51,1.51,0,0,1,0,2.14h0a1.52,1.52,0,0,1-1.08.45h0A1.52,1.52,0,0,1,126.05,12.47Zm-5.8-2.77A1.5,1.5,0,0,1,121.58,8h0a1.5,1.5,0,0,1,1.67,1.33h0A1.5,1.5,0,0,1,121.92,11h-.17A1.51,1.51,0,0,1,120.25,9.7Z"/><path class="cls-3" d="M142.69,173.24h0a1.5,1.5,0,0,1-.93-1.92h0a1.52,1.52,0,0,1,1.93-.94h0a1.53,1.53,0,0,1,.93,1.93h0a1.53,1.53,0,0,1-1.43,1h0A1.43,1.43,0,0,1,142.69,173.24Zm4.86-1.26a1.51,1.51,0,0,1,.47-2.09h0a1.53,1.53,0,0,1,2.09.47h0a1.52,1.52,0,0,1-.48,2.09h0a1.49,1.49,0,0,1-.8.24h0A1.52,1.52,0,0,1,147.55,172Zm-9.81-3.67h0a1.52,1.52,0,0,1,.93-1.93h0a1.52,1.52,0,0,1,1.93.92h0a1.52,1.52,0,0,1-.93,1.93h0a1.47,1.47,0,0,1-.5.09h0A1.52,1.52,0,0,1,137.74,168.31Zm13.93-.44a1.51,1.51,0,0,1-1.33-1.67h0a1.52,1.52,0,0,1,1.67-1.34h0a1.52,1.52,0,0,1,1.34,1.67h0a1.52,1.52,0,0,1-1.51,1.35h-.17ZM139,163.45a1.52,1.52,0,0,1-.48-2.09h0a1.52,1.52,0,0,1,2.09-.48h0a1.52,1.52,0,0,1,.48,2.09h0a1.51,1.51,0,0,1-1.29.71h0A1.57,1.57,0,0,1,139,163.45Zm9.91-1.37h0a1.51,1.51,0,0,1,0-2.14h0a1.51,1.51,0,0,1,2.14,0h0a1.51,1.51,0,0,1,0,2.14h0a1.55,1.55,0,0,1-1.07.44h0A1.49,1.49,0,0,1,148.9,162.08Zm-5.81-2.77a1.52,1.52,0,0,1,1.33-1.68h0A1.52,1.52,0,0,1,146.1,159h0a1.53,1.53,0,0,1-1.33,1.68h-.18A1.51,1.51,0,0,1,143.09,159.31Z"/><path class="cls-3" d="M204.41,187.16h0a1.51,1.51,0,0,1-.93-1.93h0a1.51,1.51,0,0,1,1.92-.93h0a1.53,1.53,0,0,1,.94,1.93h0a1.52,1.52,0,0,1-1.43,1h0A1.42,1.42,0,0,1,204.41,187.16Zm4.86-1.26a1.51,1.51,0,0,1,.47-2.09h0a1.52,1.52,0,0,1,2.09.47h0a1.52,1.52,0,0,1-.48,2.09h0a1.48,1.48,0,0,1-.8.23h0A1.5,1.5,0,0,1,209.27,185.9Zm-9.81-3.68a1.5,1.5,0,0,1,.93-1.92h0a1.49,1.49,0,0,1,1.92.92h0a1.51,1.51,0,0,1-.92,1.93h0a1.51,1.51,0,0,1-.5.09h0A1.51,1.51,0,0,1,199.46,182.22Zm13.93-.44a1.5,1.5,0,0,1-1.33-1.67h0a1.5,1.5,0,0,1,1.67-1.33h0a1.5,1.5,0,0,1,1.33,1.67h0a1.51,1.51,0,0,1-1.5,1.34h-.17Zm-12.68-4.42a1.51,1.51,0,0,1-.48-2.08h0a1.52,1.52,0,0,1,2.09-.48h0a1.52,1.52,0,0,1,.47,2.09h0a1.51,1.51,0,0,1-1.28.71h0A1.49,1.49,0,0,1,200.71,177.36Zm9.91-1.36h0a1.51,1.51,0,0,1,0-2.14h0a1.51,1.51,0,0,1,2.14,0h0l0,0h0a1.51,1.51,0,0,1,0,2.14h0a1.55,1.55,0,0,1-1.08.44h0A1.51,1.51,0,0,1,210.62,176Zm-5.81-2.77a1.51,1.51,0,0,1,1.33-1.68h0a1.51,1.51,0,0,1,1.67,1.33h0a1.52,1.52,0,0,1-1.33,1.68h-.17A1.51,1.51,0,0,1,204.81,173.23Z"/><path class="cls-3" d="M218,140.72a1.52,1.52,0,0,1-.93-1.93h0a1.52,1.52,0,0,1,1.93-.93h0a1.52,1.52,0,0,1,.93,1.93h0a1.51,1.51,0,0,1-1.43,1h0A1.8,1.8,0,0,1,218,140.72Zm4.86-1.26a1.52,1.52,0,0,1,.47-2.09h0a1.52,1.52,0,0,1,2.09.47h0a1.53,1.53,0,0,1-.47,2.09h0a1.49,1.49,0,0,1-.81.23h0A1.52,1.52,0,0,1,222.88,139.46Zm-9.81-3.68h0a1.51,1.51,0,0,1,.93-1.92h0a1.51,1.51,0,0,1,1.93.92h0a1.51,1.51,0,0,1-.93,1.93h0a1.43,1.43,0,0,1-.5.09h0A1.53,1.53,0,0,1,213.07,135.78Zm13.94-.44a1.52,1.52,0,0,1-1.34-1.67h0a1.5,1.5,0,0,1,1.67-1.33h0a1.52,1.52,0,0,1,1.34,1.67h0a1.51,1.51,0,0,1-1.5,1.34H227Zm-12.69-4.42a1.5,1.5,0,0,1-.47-2.08h0a1.51,1.51,0,0,1,2.08-.48h0a1.52,1.52,0,0,1,.48,2.09h0a1.53,1.53,0,0,1-1.28.71h0A1.5,1.5,0,0,1,214.32,130.92Zm9.91-1.36h0a1.51,1.51,0,0,1,0-2.14h0a1.51,1.51,0,0,1,2.14,0h0a1.51,1.51,0,0,1,0,2.14h0a1.53,1.53,0,0,1-1.07.44h0A1.53,1.53,0,0,1,224.23,129.56Zm-5.81-2.77a1.52,1.52,0,0,1,1.33-1.68h0a1.52,1.52,0,0,1,1.68,1.33h0a1.52,1.52,0,0,1-1.33,1.68h-.18A1.51,1.51,0,0,1,218.42,126.79Z"/><path class="cls-3" d="M222.56,41.33a1.51,1.51,0,0,1-.93-1.92h0a1.51,1.51,0,0,1,1.93-.93h0a1.51,1.51,0,0,1,.93,1.92h0a1.52,1.52,0,0,1-1.43,1h0A1.47,1.47,0,0,1,222.56,41.33Zm4.86-1.26a1.51,1.51,0,0,1,.47-2.09h0a1.52,1.52,0,0,1,2.09.48h0a1.51,1.51,0,0,1-.48,2.08h0a1.49,1.49,0,0,1-.8.24h0A1.51,1.51,0,0,1,227.42,40.07Zm-9.81-3.67h0a1.52,1.52,0,0,1,.93-1.93h0a1.51,1.51,0,0,1,1.93.93h0a1.53,1.53,0,0,1-.93,1.93h0a1.69,1.69,0,0,1-.5.08h0A1.52,1.52,0,0,1,217.61,36.4ZM231.54,36a1.51,1.51,0,0,1-1.33-1.67h0A1.52,1.52,0,0,1,231.88,33h0a1.52,1.52,0,0,1,1.34,1.67h0A1.52,1.52,0,0,1,231.71,36h-.17Zm-12.68-4.42a1.52,1.52,0,0,1-.48-2.09h0a1.52,1.52,0,0,1,2.09-.47h0a1.51,1.51,0,0,1,.48,2.08h0a1.51,1.51,0,0,1-1.29.71h0A1.48,1.48,0,0,1,218.86,31.54Zm9.91-1.37h0l0,0h0a1.51,1.51,0,0,1,0-2.13h0a1.52,1.52,0,0,1,2.14,0h0l0,0h0a1.5,1.5,0,0,1,0,2.13h0a1.51,1.51,0,0,1-1.07.44h0A1.47,1.47,0,0,1,228.77,30.17ZM223,27.4a1.5,1.5,0,0,1,1.33-1.67h0A1.52,1.52,0,0,1,226,27.06h0a1.51,1.51,0,0,1-1.33,1.67h-.18A1.51,1.51,0,0,1,223,27.4Z"/><path class="cls-3" d="M17.91,142a1.14,1.14,0,0,1-1.13-1.13v-7.26a1.14,1.14,0,1,1,2.27,0v7.26A1.14,1.14,0,0,1,17.91,142Z"/><path class="cls-3" d="M21.62,138.47H14.36a1.14,1.14,0,1,1,0-2.27h7.26a1.14,1.14,0,0,1,0,2.27Z"/><path class="cls-3" d="M220.62,163.5a1.14,1.14,0,0,1-1.14-1.13v-7.26a1.14,1.14,0,1,1,2.27,0v7.26A1.14,1.14,0,0,1,220.62,163.5Z"/><path class="cls-3" d="M224.32,160h-7.26a1.14,1.14,0,0,1,0-2.27h7.26a1.14,1.14,0,1,1,0,2.27Z"/><path class="cls-3" d="M154.21,12.68a1.13,1.13,0,0,1-1.14-1.13V4.29a1.14,1.14,0,1,1,2.27,0v7.26A1.13,1.13,0,0,1,154.21,12.68Z"/><path class="cls-3" d="M157.91,9.13h-7.26a1.14,1.14,0,0,1,0-2.27h7.26a1.14,1.14,0,1,1,0,2.27Z"/><path class="cls-3" d="M32,20.85a1.12,1.12,0,0,1-1.13-1.13V12.46a1.14,1.14,0,1,1,2.27,0v7.26A1.13,1.13,0,0,1,32,20.85Z"/><path class="cls-3" d="M35.69,17.3H28.43a1.14,1.14,0,1,1,0-2.27h7.26a1.14,1.14,0,0,1,0,2.27Z"/><path class="cls-3" d="M44.39,182.26a1.14,1.14,0,0,1-1.14-1.14v-7.26a1.14,1.14,0,0,1,2.27,0v7.26A1.14,1.14,0,0,1,44.39,182.26Z"/><path class="cls-3" d="M48.09,178.7H40.83a1.13,1.13,0,1,1,0-2.26h7.26a1.13,1.13,0,1,1,0,2.26Z"/><path class="cls-3" d="M109.67,116.46H96.09A1.14,1.14,0,0,1,95,115.32V104.08a30.87,30.87,0,0,1-7.8-3.27l-8,8a1.18,1.18,0,0,1-.81.33,1.14,1.14,0,0,1-.8-.33L68,99.18a1.11,1.11,0,0,1,0-1.6l8-8a31,31,0,0,1-3.15-7.74H61.43a1.13,1.13,0,0,1-1.13-1.13V67.08A1.12,1.12,0,0,1,61.43,66H73c.09-.36.2-.71.31-1a1.13,1.13,0,1,1,2.16.67c-.18.59-.35,1.18-.49,1.78a1.13,1.13,0,0,1-1.1.87H62.57V79.53H73.76a1.14,1.14,0,0,1,1.11.89,28.3,28.3,0,0,0,3.53,8.7,1.15,1.15,0,0,1-.17,1.4l-7.86,7.86,8,8,7.81-7.8a1.12,1.12,0,0,1,1.4-.16,28.44,28.44,0,0,0,8.76,3.66,1.13,1.13,0,0,1,.88,1.11v11h11.32v-11a1.14,1.14,0,0,1,.87-1.11,28.24,28.24,0,0,0,8.76-3.66,1.13,1.13,0,1,1,1.21,1.92,30.71,30.71,0,0,1-8.57,3.74v11.24A1.14,1.14,0,0,1,109.67,116.46Zm-6.79-24.1A18.25,18.25,0,0,1,86.08,67a1.13,1.13,0,0,1,2.09.88,16,16,0,0,0,14.71,22.18,15.74,15.74,0,0,0,6.21-1.26,1.14,1.14,0,0,1,.89,2.09A18,18,0,0,1,102.88,92.36Zm25.45-1.51a1.09,1.09,0,0,1-.6-.17,1.13,1.13,0,0,1-.37-1.56,28.55,28.55,0,0,0,3.53-8.7,1.14,1.14,0,0,1,1.11-.89h11.19V68.22H131.88a1.13,1.13,0,0,1-1.1-.87,28.49,28.49,0,0,0-3.61-8.52,1.15,1.15,0,0,1,.16-1.41l8.06-8.05-8-8-8.11,8.11a1.15,1.15,0,0,1-1.4.17,28.06,28.06,0,0,0-8.46-3.48,1.14,1.14,0,0,1-.87-1.11V33.56H97.22v11.5a1.14,1.14,0,1,1-2.27,0V32.43a1.14,1.14,0,0,1,1.14-1.14h13.58a1.14,1.14,0,0,1,1.14,1.14V44.18a31,31,0,0,1,7.48,3.07L126.58,39a1.15,1.15,0,0,1,1.61,0l9.6,9.61a1.13,1.13,0,0,1,0,1.6l-8.22,8.23A30.59,30.59,0,0,1,132.76,66h11.57a1.13,1.13,0,0,1,1.13,1.13V80.67a1.14,1.14,0,0,1-1.13,1.13H132.89a30.53,30.53,0,0,1-3.6,8.51A1.11,1.11,0,0,1,128.33,90.85ZM119,81.7a1.15,1.15,0,0,1-.48-.1,1.13,1.13,0,0,1-.55-1.51c.87-1.88.87-3.32.87-5.7v-.26A16,16,0,0,0,97.89,59a1.14,1.14,0,1,1-.7-2.16,18.26,18.26,0,0,1,23.92,17.33v.26c0,2.51,0,4.32-1.09,6.66A1.13,1.13,0,0,1,119,81.7Z"/><path class="cls-3" d="M161.81,150.71a17.4,17.4,0,0,1-16.29-23.55L81.47,61.35a29.9,29.9,0,0,1-43-36,1.12,1.12,0,0,1,.82-.73,1.16,1.16,0,0,1,1.06.32L60.56,45.67a3.72,3.72,0,0,0,5.26.07l7.2-7a3.72,3.72,0,0,0,.07-5.26L48.41,8.11a1.13,1.13,0,0,1,.25-1.77c5.48-3.16,12.75-3.92,20.48-2.13A39.21,39.21,0,0,1,88,14.54a29.91,29.91,0,0,1,4,36.54l64,65.78a17.41,17.41,0,1,1,5.71,33.85ZM81.66,58.78a1.14,1.14,0,0,1,.82.35l65.18,67a1.12,1.12,0,0,1,.23,1.23,15.14,15.14,0,1,0,8.33-8.1A1.13,1.13,0,0,1,155,119L89.82,52a1.15,1.15,0,0,1-.13-1.42,27.77,27.77,0,0,0-3.27-34.47A36.94,36.94,0,0,0,68.63,6.42C62.07,4.91,55.91,5.34,51.1,7.62L74.72,31.89a6,6,0,0,1-.12,8.46l-7.2,7a6,6,0,0,1-8.47-.12L40,27.83a27.42,27.42,0,0,0,6.78,26.84A27.8,27.8,0,0,0,81.07,59,1.15,1.15,0,0,1,81.66,58.78Zm80.15,83.36h-.12a9,9,0,1,1,.12,0Zm0-15.39a6.56,6.56,0,0,0-.08,13.12,6.57,6.57,0,0,0,6.65-6.47,6.57,6.57,0,0,0-1.86-4.67h0A6.53,6.53,0,0,0,161.8,126.75Z"/><path class="cls-3" d="M59.21,195.65h-11a1.14,1.14,0,1,1,0-2.27h11a1.14,1.14,0,0,1,0,2.27Z"/><path class="cls-3" d="M80.48,195.65h-14a1.14,1.14,0,0,1,0-2.27h14a1.14,1.14,0,0,1,0,2.27Z"/><path class="cls-3" d="M169.49,195.65H145.28a1.14,1.14,0,0,1,0-2.27h24.21a1.14,1.14,0,0,1,0,2.27Z"/><path class="cls-3" d="M170.06,148.49a1.13,1.13,0,1,1,0-2.26h9.56a1.13,1.13,0,1,1,0,2.26Z"/><rect class="cls-3" x="193.19" y="68.68" width="2.27" height="61.62" rx="1.13"/><path class="cls-3" d="M95.71,34.82a1.14,1.14,0,0,1,0-2.27h53.45a1.14,1.14,0,0,1,0,2.27Z"/><path class="cls-3" d="M48.14,34.82a1.14,1.14,0,1,1,0-2.27H73.93a1.14,1.14,0,0,1,0,2.27Z"/><path class="cls-3" d="M28,85.75a1.14,1.14,0,0,1-1.14-1.14V41.86a9.3,9.3,0,0,1,9.3-9.3,1.13,1.13,0,1,1,0,2.26,7,7,0,0,0-7,7V84.61A1.14,1.14,0,0,1,28,85.75Z"/><path class="cls-3" d="M36.2,148.5a9.32,9.32,0,0,1-9.31-9.3V124.25a1.14,1.14,0,1,1,2.27,0V139.2a7,7,0,0,0,7,7H152.82a1.14,1.14,0,0,1,0,2.27Z"/><path class="cls-3" d="M178,134.29a1.14,1.14,0,0,1,0-2.27h14.33a1.14,1.14,0,0,1,0,2.27Z"/><path class="cls-3" d="M154.33,134.29a1.14,1.14,0,1,1,0-2.27h14.14a1.14,1.14,0,1,1,0,2.27Z"/><path class="cls-3" d="M28.36,134.29a1.14,1.14,0,0,1,0-2.27H144.27a1.14,1.14,0,0,1,0,2.27Z"/><path class="cls-3" d="M145.3,195.67H77.1A1.14,1.14,0,0,1,76,194.54v-5.31a7.21,7.21,0,0,1,7.2-7.2h56.07a7.21,7.21,0,0,1,7.21,7.2v5.31A1.14,1.14,0,0,1,145.3,195.67ZM78.23,193.4h65.94v-4.17a5,5,0,0,0-4.94-4.93H83.16a4.94,4.94,0,0,0-4.93,4.93Z"/><path class="cls-3" d="M91.59,184.3a1.12,1.12,0,0,1-1.13-1.13v-35a1.13,1.13,0,0,1,2.26,0v35A1.12,1.12,0,0,1,91.59,184.3Z"/><path class="cls-3" d="M130.81,184.3a1.13,1.13,0,0,1-1.14-1.13v-35a1.14,1.14,0,0,1,2.27,0v35A1.13,1.13,0,0,1,130.81,184.3Z"/><path class="cls-3" d="M97.63,158a1.14,1.14,0,0,1-1.13-1.13v-4.54a1.14,1.14,0,1,1,2.27,0v4.54A1.14,1.14,0,0,1,97.63,158Z"/><path class="cls-3" d="M106.26,178.55H97.48a1.13,1.13,0,0,1-1.13-1.13V162.9a1.14,1.14,0,1,1,2.27,0v13.38h7.64a1.14,1.14,0,0,1,0,2.27Z"/><path class="cls-3" d="M49.83,124.25H7.63a1.14,1.14,0,0,1-1.14-1.14V85.9a1.13,1.13,0,0,1,1.14-1.13h42.2A1.13,1.13,0,0,1,51,85.9v37.21A1.14,1.14,0,0,1,49.83,124.25ZM8.76,122H48.7V87H8.76Z"/><path class="cls-3" d="M23.06,93.69H12.77a1.14,1.14,0,0,1,0-2.27H23.06a1.14,1.14,0,0,1,0,2.27Z"/><path class="cls-3" d="M43.33,93.69H28.65a1.14,1.14,0,0,1,0-2.27H43.33a1.14,1.14,0,0,1,0,2.27Z"/><path class="cls-3" d="M25.93,100.65H12.77a1.14,1.14,0,0,1,0-2.27H25.93a1.14,1.14,0,1,1,0,2.27Z"/><path class="cls-3" d="M43.33,100.65H31.53a1.14,1.14,0,1,1,0-2.27h11.8a1.14,1.14,0,0,1,0,2.27Z"/><path class="cls-3" d="M23.06,107.61H12.77a1.14,1.14,0,0,1,0-2.27H23.06a1.14,1.14,0,0,1,0,2.27Z"/><path class="cls-3" d="M43.33,107.61H28.65a1.14,1.14,0,0,1,0-2.27H43.33a1.14,1.14,0,0,1,0,2.27Z"/><path class="cls-3" d="M19.27,114.57h-6.5a1.14,1.14,0,0,1,0-2.27h6.5a1.14,1.14,0,1,1,0,2.27Z"/><path class="cls-3" d="M43.33,114.57H24.87a1.14,1.14,0,0,1,0-2.27H43.33a1.14,1.14,0,0,1,0,2.27Z"/><path class="cls-3" d="M161.47,34.85h-4.54a1.14,1.14,0,0,1,0-2.27h4.54a1.14,1.14,0,0,1,0,2.27Z"/><path class="cls-3" d="M212.75,69.94h-62a1.14,1.14,0,0,1-1.14-1.13V22.22a1.14,1.14,0,0,1,1.14-1.14h62a1.13,1.13,0,0,1,1.13,1.14V68.81A1.13,1.13,0,0,1,212.75,69.94Zm-60.89-2.27h59.76V23.35H151.86Z"/><path class="cls-3" d="M211.54,29.48H150.73a1.14,1.14,0,1,1,0-2.27h60.81a1.14,1.14,0,0,1,0,2.27Z"/><path class="cls-3" d="M200.54,29.48a1.14,1.14,0,0,1-1.13-1.14V22.22a1.14,1.14,0,1,1,2.27,0v6.12A1.14,1.14,0,0,1,200.54,29.48Z"/><path class="cls-3" d="M184.16,66.5a5.3,5.3,0,0,1-3.69-1.35h0a4.56,4.56,0,0,1-1.53-3.43,4.39,4.39,0,0,1,1.55-3.42A5.36,5.36,0,0,1,184.16,57a5.27,5.27,0,0,1,3.65,1.32,4.42,4.42,0,0,1,1.52,3.42,4.52,4.52,0,0,1-1.49,3.46A5.3,5.3,0,0,1,184.16,66.5Zm-2.16-3a3.09,3.09,0,0,0,2.16.75,3.06,3.06,0,0,0,2.15-.74,2.27,2.27,0,0,0,.75-1.78A2.16,2.16,0,0,0,186.3,60a3.09,3.09,0,0,0-2.14-.75A3.13,3.13,0,0,0,182,60a2.18,2.18,0,0,0-.79,1.73A2.34,2.34,0,0,0,182,63.48Zm4.74-6.62H181a1.14,1.14,0,0,1-1.06-.73,7.24,7.24,0,0,1-.4-1.51,9.22,9.22,0,0,1,.09-3.65,7.36,7.36,0,0,1,.7-1.85,8.41,8.41,0,0,1,1.14-1.63A14,14,0,0,1,182.93,46c.53-.45,1-.87,1.4-1.25a8.09,8.09,0,0,0,.94-1.07,3.23,3.23,0,0,0,.5-.95,3.27,3.27,0,0,0,.16-1.08,2.23,2.23,0,0,0-.15-.83,1.63,1.63,0,0,0-.42-.6,2.12,2.12,0,0,0-.72-.43,2.89,2.89,0,0,0-1-.17,8.69,8.69,0,0,0-3.16.64,10.46,10.46,0,0,0-3.16,2,1.15,1.15,0,0,1-1.22.18,1.14,1.14,0,0,1-.66-1V34.78a1.15,1.15,0,0,1,.55-1,15.17,15.17,0,0,1,4-1.64,18,18,0,0,1,4.42-.54,16.68,16.68,0,0,1,4.09.48,10.07,10.07,0,0,1,3.47,1.61,7.92,7.92,0,0,1,2.39,2.89,9.3,9.3,0,0,1,.85,4.12,9.9,9.9,0,0,1-.35,2.75,9.21,9.21,0,0,1-1,2.34,10.69,10.69,0,0,1-1.63,2.06A25.49,25.49,0,0,1,190,49.79c-.49.41-.93.79-1.3,1.14a6.67,6.67,0,0,0-.82.93,2.86,2.86,0,0,0-.43.83,3.21,3.21,0,0,0-.14,1,3.17,3.17,0,0,0,.1.79,2.24,2.24,0,0,0,.24.59,1.14,1.14,0,0,1-.95,1.76Zm-5-2.27h3.36a5.19,5.19,0,0,1-.07-.87,5.16,5.16,0,0,1,1-3.18,9,9,0,0,1,1.11-1.26c.41-.38.88-.8,1.41-1.24a23.14,23.14,0,0,0,1.94-1.76,9.07,9.07,0,0,0,1.32-1.66,7.17,7.17,0,0,0,.78-1.77,8.12,8.12,0,0,0,.26-2.13,7.14,7.14,0,0,0-.62-3.12,5.44,5.44,0,0,0-1.7-2.06,7.7,7.7,0,0,0-2.68-1.24,14.61,14.61,0,0,0-3.53-.41,15.46,15.46,0,0,0-3.86.47,12.73,12.73,0,0,0-2.84,1.08v3.72a11.12,11.12,0,0,1,2-1,11,11,0,0,1,4-.79,5.23,5.23,0,0,1,1.84.31,4.26,4.26,0,0,1,1.47.89,3.92,3.92,0,0,1,1,1.4,4.4,4.4,0,0,1,.33,1.7,5.54,5.54,0,0,1-.28,1.81,5.81,5.81,0,0,1-.81,1.56,12.19,12.19,0,0,1-1.2,1.36c-.43.42-.95.87-1.52,1.36A11.48,11.48,0,0,0,183.12,49a6.15,6.15,0,0,0-.84,1.19,5.21,5.21,0,0,0-.49,1.3,7,7,0,0,0-.17,1.59,6.91,6.91,0,0,0,.1,1.16C181.74,54.36,181.77,54.48,181.79,54.59Z"/><path class="cls-3" d="M169.79,43.39H156.93a1.14,1.14,0,0,1,0-2.27h12.86a1.14,1.14,0,0,1,0,2.27Z"/><path class="cls-3" d="M175.54,51.94H156.93a1.14,1.14,0,0,1,0-2.27h18.61a1.14,1.14,0,0,1,0,2.27Z"/><path class="cls-3" d="M160.26,102.77h-4.54a1.13,1.13,0,0,1-1.13-1.14V79.4a1.13,1.13,0,0,1,1.13-1.14H178a1.14,1.14,0,0,1,0,2.27h-21.1v20h3.4a1.14,1.14,0,0,1,0,2.27Z"/><path class="cls-3" d="M183.25,87H161.77a1.13,1.13,0,1,1,0-2.26h21.48a1.13,1.13,0,1,1,0,2.26Z"/><path class="cls-3" d="M171.45,95.66h-9.68a1.14,1.14,0,0,1,0-2.27h9.68a1.14,1.14,0,1,1,0,2.27Z"/><path class="cls-3" d="M183.25,95.66h-8.47a1.14,1.14,0,0,1,0-2.27h8.47a1.14,1.14,0,1,1,0,2.27Z"/><path class="cls-3" d="M19.43,51.94a1.14,1.14,0,0,1-1.14-1.13V42.33a1.14,1.14,0,0,1,2.27,0v8.48A1.14,1.14,0,0,1,19.43,51.94Z"/><path class="cls-3" d="M19.43,80.53a1.14,1.14,0,0,1-1.14-1.13V61.7a1.14,1.14,0,1,1,2.27,0V79.4A1.14,1.14,0,0,1,19.43,80.53Z"/><path class="cls-3" d="M169.44,195.55a10.83,10.83,0,0,1-4.88-1.21,10.42,10.42,0,0,1-4.67-4.51,6.23,6.23,0,0,1-.2-5.7l22.56-44.61c-2-2.16-2-3.6-1.56-4.46,1.42-2.8,7.77-1.18,13.08,1.5a29.48,29.48,0,0,1,6.9,4.67c2.54,2.44,2.52,4.05,2.06,5h0c-.43.86-1.57,1.75-4.52,1.4l-22.55,44.6a6.23,6.23,0,0,1-4.71,3.23A9.42,9.42,0,0,1,169.44,195.55Zm15.19-55.71-22.91,45.31a4,4,0,0,0,.2,3.66,8.69,8.69,0,0,0,8.65,4.38,4,4,0,0,0,3.07-2l22.9-45.31v0a1.14,1.14,0,0,1,1.22-.62c2,.37,2.81.06,2.93,0s-.2-1-1.8-2.5a31,31,0,0,0-13.11-6.63c-2.13-.4-2.95-.09-3.07,0s.19,1,1.69,2.39a1.13,1.13,0,0,1,.23,1.33Z"/><path class="cls-3" d="M195.12,139.77a1.16,1.16,0,0,1-.51-.12,1.14,1.14,0,0,1-.5-1.53l23.21-45.9a1.13,1.13,0,0,1,1.52-.51l3.3,1.67a2.16,2.16,0,0,0,1.76.18.58.58,0,0,0,.38-.38l6.06-20.25-8-4L210.55,86.26a.69.69,0,0,0-.06.54,2.17,2.17,0,0,0,1.18,1.29L215,89.78a1.14,1.14,0,0,1,.5,1.53l-23.21,45.9a1.14,1.14,0,0,1-2-1L213,91.29l-2.33-1.17a4.42,4.42,0,0,1-2.35-2.75,2.89,2.89,0,0,1,.38-2.39l12.4-18.17a1.13,1.13,0,0,1,1.45-.37l9.68,4.89a1.15,1.15,0,0,1,.58,1.34l-6.33,21.16a2.88,2.88,0,0,1-1.67,1.81,4.43,4.43,0,0,1-3.68-.23l-2.28-1.16-22.7,44.9A1.13,1.13,0,0,1,195.12,139.77Z"/><path class="cls-3" d="M184.92,167.09c-4.78,0-8.84-2.57-12.1-7.69a1.13,1.13,0,1,1,1.91-1.22c3.44,5.39,7.65,7.47,12.85,6.35a1.13,1.13,0,1,1,.48,2.21A14.39,14.39,0,0,1,184.92,167.09Z"/><path class="cls-3" d="M180.59,175.11c-5.81,0-9.2-4-11.55-7.69A1.13,1.13,0,1,1,171,166.2c3.58,5.61,7.13,7.45,12.25,6.34a1.14,1.14,0,1,1,.48,2.22A14.49,14.49,0,0,1,180.59,175.11Z"/></svg>